<svg xmlns="http://www.w3.org/2000/svg" xmlns:xlink="http://www.w3.org/1999/xlink" width="150" zoomAndPan="magnify" viewBox="0 0 112.5 112.499997" height="150" preserveAspectRatio="xMidYMid meet" version="1.0"><path fill="#333436" d="M 11.523438 32.523438 C 11.851562 32.195312 12.230469 31.941406 12.660156 31.761719 C 13.089844 31.582031 13.535156 31.496094 14 31.496094 C 14.464844 31.496094 14.914062 31.582031 15.339844 31.761719 C 15.769531 31.941406 16.148438 32.195312 16.476562 32.523438 L 56 72.050781 L 95.523438 32.523438 C 95.851562 32.195312 96.230469 31.941406 96.660156 31.765625 C 97.089844 31.585938 97.535156 31.496094 98 31.5 C 98.464844 31.5 98.914062 31.585938 99.339844 31.765625 C 99.769531 31.941406 100.148438 32.195312 100.476562 32.523438 C 100.804688 32.851562 101.058594 33.230469 101.238281 33.660156 C 101.414062 34.089844 101.503906 34.535156 101.503906 35 C 101.503906 35.464844 101.414062 35.914062 101.238281 36.34375 C 101.0625 36.769531 100.808594 37.148438 100.480469 37.480469 L 58.480469 79.480469 C 58.152344 79.808594 57.773438 80.0625 57.34375 80.242188 C 56.914062 80.417969 56.464844 80.507812 56 80.507812 C 55.535156 80.507812 55.089844 80.417969 54.660156 80.242188 C 54.230469 80.0625 53.851562 79.808594 53.523438 79.480469 L 11.523438 37.480469 C 11.191406 37.152344 10.9375 36.773438 10.761719 36.34375 C 10.582031 35.914062 10.492188 35.464844 10.492188 35 C 10.492188 34.535156 10.582031 34.089844 10.761719 33.660156 C 10.9375 33.230469 11.191406 32.851562 11.523438 32.523438 Z M 11.523438 32.523438 " fill-opacity="1" fill-rule="evenodd"/></svg>